<svg xmlns="http://www.w3.org/2000/svg" xmlns:xlink="http://www.w3.org/1999/xlink" width="934" height="853" fill="none" xmlns:v="https://vecta.io/nano"><style><![CDATA[.B{fill-rule:evenodd}.C{fill:#002d6f}.D{fill:#56aaff}.E{fill:#ff9c99}]]></style><mask id="A" mask-type="alpha" maskUnits="userSpaceOnUse" x="243" y="247" width="507" height="606"><use xlink:href="#G" fill="#fff"/></mask><g mask="url(#A)"><use xlink:href="#G" fill="#ff567b"/><g class="B C"><path d="M335.5 728.5L465 696l59 163.5H289l46.5-131zm246-13l128 12 68.5 160H543l38.5-172z"/></g></g><mask id="B" mask-type="alpha" maskUnits="userSpaceOnUse" x="139" y="70" width="623" height="374"><use xlink:href="#H" fill="#fff"/></mask><g mask="url(#B)"><use xlink:href="#H" fill="#ffe694"/><path d="M527.524 193.742a1 1 0 1 1-.253-1.984l6.524-.83a1 1 0 1 1 .252 1.984l-6.523.83zm.127-10.44a1 1 0 1 1-.253-1.984l6.524-.83a1 1 0 0 1 .253 1.984l-6.524.83zm26.93 6.843a1 1 0 1 1-.252-1.984l6.523-.83a1 1 0 1 1 .253 1.984l-6.524.83zm.128-10.44a1 1 0 0 1-.253-1.984l6.524-.83a1 1 0 1 1 .252 1.984l-6.523.83zm-13.924 12.844a1 1 0 0 1-1.181-.778 1 1 0 0 1 .779-1.181l6.386-1.31a1 1 0 0 1 1.18.779 1 1 0 0 1-.778 1.18l-6.386 1.31zm.127-10.44a1 1 0 0 1-1.18-.779 1 1 0 0 1 .778-1.18l6.386-1.31a1 1 0 0 1 1.181.778 1 1 0 0 1-.779 1.181l-6.386 1.31zm26.93 6.842a1 1 0 0 1-1.18-.778 1 1 0 0 1 .778-1.181l6.386-1.31a1 1 0 1 1 .403 1.959l-6.387 1.31zm.128-10.44a1 1 0 1 1-.402-1.96l6.386-1.31a1 1 0 0 1 .402 1.96l-6.386 1.31zm13.67 8.035a1 1 0 1 1-.253-1.984l6.524-.83a1 1 0 1 1 .253 1.984l-6.524.83zm.127-10.44a1 1 0 1 1-.252-1.984l6.523-.83a1 1 0 1 1 .253 1.984l-6.524.83zm13.133 9.247a1 1 0 0 1-1.181-.779 1 1 0 0 1 .779-1.18l6.386-1.31a1 1 0 0 1 1.181.778 1 1 0 0 1-.779 1.181l-6.386 1.31zm.128-10.44a1 1 0 1 1-.403-1.959l6.386-1.31a1 1 0 1 1 .403 1.959l-6.386 1.31zm-67.247-2.052a1 1 0 1 1-.252-1.984l6.524-.83a1 1 0 1 1 .252 1.984l-6.524.83zm27.057-3.597a1 1 0 1 1-.253-1.984l6.524-.83a1 1 0 1 1 .253 1.984l-6.524.83zm-13.796 2.404a1 1 0 1 1-.403-1.959l6.386-1.31a1 1 0 1 1 .403 1.959l-6.386 1.31zm27.056-3.597a1 1 0 0 1-1.18-.778 1 1 0 0 1 .778-1.181l6.386-1.31a1 1 0 0 1 1.181.778 1 1 0 0 1-.779 1.181l-6.386 1.31zm13.797-2.405a1 1 0 1 1-.253-1.984l6.524-.83a1 1 0 1 1 .252 1.984l-6.523.83zm13.26-1.192a1 1 0 0 1-1.181-.779 1 1 0 0 1 .779-1.18l6.386-1.31a1 1 0 0 1 1.18.778 1 1 0 0 1-.778 1.181l-6.386 1.31zm-67.246-2.053a1 1 0 1 1-.253-1.984l6.524-.83a1 1 0 1 1 .253 1.984l-6.524.83zm27.056-3.597a1 1 0 1 1-.252-1.984l6.524-.83a1 1 0 1 1 .252 1.984l-6.524.83zm-13.796 2.405a1 1 0 0 1-1.181-.779 1 1 0 0 1 .779-1.18l6.386-1.31a1 1 0 0 1 1.181.778 1 1 0 0 1-.779 1.181l-6.386 1.31zm27.057-3.597a1 1 0 1 1-.402-1.96l6.386-1.31a1 1 0 0 1 .402 1.96l-6.386 1.31zm13.796-2.405a1 1 0 1 1-.253-1.984l6.524-.83a1 1 0 1 1 .253 1.984l-6.524.83zm13.26-1.193a1 1 0 0 1-1.18-.778 1 1 0 0 1 .778-1.181l6.386-1.31a1 1 0 0 1 1.181.779 1 1 0 0 1-.779 1.18l-6.386 1.31zm-67.246-2.052a1 1 0 1 1-.252-1.984l6.523-.83a1 1 0 1 1 .253 1.984l-6.524.83zm27.057-3.597a1 1 0 1 1-.253-1.984l6.524-.83a1 1 0 1 1 .253 1.984l-6.524.83zm-13.796 2.404a1 1 0 1 1-.403-1.959l6.386-1.31a1 1 0 1 1 .403 1.959l-6.386 1.31zm27.056-3.597a1 1 0 0 1-1.181-.778 1 1 0 0 1 .779-1.181l6.386-1.31a1 1 0 0 1 1.181.778 1 1 0 0 1-.779 1.181l-6.386 1.31zm13.796-2.405a1 1 0 1 1-.252-1.984l6.524-.83a1 1 0 1 1 .252 1.984l-6.524.83zm13.26-1.192a1 1 0 0 1-1.181-.779 1 1 0 0 1 .779-1.18l6.386-1.31a1 1 0 0 1 1.18.778 1 1 0 0 1-.778 1.181l-6.386 1.31zm-67.246-2.053a1 1 0 0 1-.253-1.984l6.524-.83a1 1 0 1 1 .252 1.984l-6.523.83zm27.056-3.597a1 1 0 1 1-.252-1.984l6.524-.83a1 1 0 1 1 .252 1.984l-6.524.83zm-13.796 2.405a1 1 0 0 1-.402-1.96l6.386-1.31a1 1 0 0 1 .402 1.96l-6.386 1.31zm27.057-3.598a1 1 0 1 1-.403-1.959l6.386-1.31a1 1 0 1 1 .403 1.959l-6.386 1.31zm13.796-2.404a1 1 0 1 1-.253-1.984l6.524-.83a1 1 0 1 1 .253 1.984l-6.524.83zm13.26-1.193a1 1 0 0 1-1.181-.778 1 1 0 0 1 .779-1.181l6.386-1.31a1 1 0 0 1 1.181.779 1 1 0 0 1-.779 1.18l-6.386 1.31zm-40.19-5.65a1 1 0 1 1-.253-1.984l6.524-.83a1 1 0 1 1 .252 1.984l-6.523.83zm-13.797 2.404a1 1 0 0 1-1.18-.778 1 1 0 0 1 .778-1.181l6.386-1.31a1 1 0 0 1 1.181.778 1 1 0 0 1-.779 1.181l-6.386 1.31zm27.057-3.597a1 1 0 0 1-1.181-.779 1 1 0 0 1 .779-1.18l6.386-1.31a1 1 0 0 1 1.18.778 1 1 0 0 1-.778 1.181l-6.386 1.31zm-37.055 4.374l-.253-1.984.253 1.984zm0 0l-3.262.416c-1.323.168-1.575-1.816-.253-1.984l6.524-.83c1.323-.168 1.576 1.816.253 1.984l-3.262.415zm54.113-7.194l-.252-1.984.252 1.984zm-.252-1.984c1.322-.168 1.575 1.816.252 1.984l-3.262.415c-1.322.17-1.575-1.815-.252-1.984l6.524-.83c1.322-.168 1.575 1.816.252 1.984l-3.262.415c-1.323.17-1.575-1.815-.252-1.984zm10.25 1.207a1 1 0 1 1-.403-1.959l6.386-1.31a1 1 0 1 1 .403 1.959l-6.386 1.31zm-153.997 14.746a1 1 0 0 1 .959-1.038 1 1 0 0 1 1.039.959l.26 6.572a1 1 0 1 1-1.999.079l-.258-6.572zm10.388 1.037a1 1 0 1 1 1.999-.079l.258 6.572a1 1 0 0 1-.96 1.038 1 1 0 0 1-1.038-.96l-.26-6.57zm-9.163 26.23a1 1 0 0 1 .96-1.038 1 1 0 0 1 1.038.96l.26 6.57a1 1 0 1 1-1.999.079l-.258-6.572zm10.39 1.037a1 1 0 0 1 .959-1.038 1 1 0 0 1 1.039.959l.26 6.572a1 1 0 1 1-1.999.078l-.258-6.57zm-11.582-15a1 1 0 1 1 1.987-.23l.75 6.476a1 1 0 1 1-1.987.23l-.75-6.476zm10.39 1.037a1 1 0 0 1 .878-1.109 1 1 0 0 1 1.108.879l.75 6.476a1 1 0 1 1-1.987.23l-.75-6.476zm-9.164 26.23a1 1 0 1 1 1.987-.23l.75 6.476a1 1 0 0 1-.878 1.108 1 1 0 0 1-1.108-.878l-.75-6.476zm10.39 1.037a1 1 0 1 1 1.987-.23l.75 6.476a1 1 0 1 1-1.987.23l-.75-6.476zm-9.196 12.916a1 1 0 1 1 1.999-.078l.258 6.57a1 1 0 0 1-.96 1.039 1 1 0 0 1-1.038-.96l-.26-6.572zm10.39 1.037a1 1 0 0 1 .96-1.038 1 1 0 0 1 1.038.96l.26 6.57a1 1 0 0 1-.96 1.039 1 1 0 0 1-1.038-.96l-.26-6.572zm-10.356 12.277a1 1 0 0 1 .878-1.108 1 1 0 0 1 1.108.878l.75 6.476a1 1 0 0 1-1.987.23l-.75-6.476zm10.388 1.037a1 1 0 1 1 1.987-.23l.75 6.476a1 1 0 0 1-.878 1.108 1 1 0 0 1-1.108-.878l-.75-6.476zm7.906-66.81a1 1 0 0 1 .96-1.039 1 1 0 0 1 1.038.96l.26 6.57a1 1 0 0 1-.96 1.039 1 1 0 0 1-1.038-.96l-.26-6.57zm1.225 27.267a1 1 0 1 1 1.999-.079l.258 6.572a1 1 0 0 1-.96 1.038 1 1 0 0 1-1.038-.96l-.26-6.57zm-1.193-13.953a1 1 0 1 1 1.987-.23l.75 6.476a1 1 0 0 1-.878 1.108 1 1 0 0 1-1.108-.879l-.75-6.475zm1.226 27.267a1 1 0 0 1 .878-1.109 1 1 0 0 1 1.108.879l.75 6.476a1 1 0 1 1-1.987.23l-.75-6.476zm1.193 13.953a1 1 0 0 1 .959-1.039 1 1 0 0 1 1.039.96l.26 6.572a1 1 0 1 1-1.999.078l-.258-6.57zm.032 13.314a1 1 0 1 1 1.987-.23l.75 6.476a1 1 0 1 1-1.987.23l-.75-6.476zm7.906-66.812a1 1 0 0 1 .96-1.038 1 1 0 0 1 1.038.96l.26 6.57a1 1 0 0 1-1.999.079l-.258-6.572zm1.225 27.268a1 1 0 0 1 .96-1.039 1 1 0 0 1 1.038.96l.26 6.57a1 1 0 0 1-.96 1.039 1 1 0 0 1-1.038-.96l-.26-6.57zm-1.193-13.954a1 1 0 1 1 1.987-.23l.75 6.476a1 1 0 0 1-1.987.23l-.75-6.476zm1.225 27.267a1 1 0 1 1 1.987-.229l.75 6.476a1 1 0 0 1-.878 1.108 1 1 0 0 1-1.108-.879l-.75-6.476zm1.193 13.954a1 1 0 1 1 1.999-.079l.258 6.572a1 1 0 0 1-.96 1.038 1 1 0 0 1-1.038-.96l-.26-6.57zm.033 13.314a1 1 0 0 1 .878-1.109 1 1 0 0 1 1.108.879l.75 6.476a1 1 0 1 1-1.987.23l-.75-6.476zm7.905-66.812a1 1 0 1 1 1.999-.078l.258 6.57a1 1 0 0 1-.96 1.039 1 1 0 0 1-1.038-.96l-.26-6.572zm1.226 27.267a1 1 0 0 1 .96-1.038 1 1 0 0 1 1.038.96l.26 6.57a1 1 0 0 1-1.999.079l-.258-6.572zm-1.193-13.953a1 1 0 0 1 .878-1.108 1 1 0 0 1 1.108.878l.75 6.476a1 1 0 1 1-1.987.23l-.75-6.476zm1.225 27.267a1 1 0 1 1 1.987-.23l.75 6.476a1 1 0 0 1-1.987.23l-.75-6.476zm1.193 13.954a1 1 0 0 1 .96-1.039 1 1 0 0 1 1.038.96l.26 6.57a1 1 0 0 1-.96 1.039 1 1 0 0 1-1.038-.96l-.26-6.57zm.032 13.313a1 1 0 1 1 1.987-.229l.75 6.476a1 1 0 0 1-.878 1.108 1 1 0 0 1-1.108-.879l-.75-6.476zm7.906-66.81a1 1 0 0 1 .96-1.038 1 1 0 0 1 1.038.959l.26 6.572a1 1 0 0 1-.96 1.038 1 1 0 0 1-1.038-.96l-.26-6.57zm1.225 27.267a1 1 0 1 1 1.999-.078l.258 6.57a1 1 0 0 1-.959 1.039 1 1 0 0 1-1.039-.96l-.26-6.572zm-1.193-13.953a1 1 0 1 1 1.987-.23l.75 6.476a1 1 0 0 1-.878 1.108 1 1 0 0 1-1.108-.878l-.75-6.476zm1.226 27.267a1 1 0 0 1 .878-1.108 1 1 0 0 1 1.108.878l.75 6.476a1 1 0 1 1-1.987.23l-.75-6.476zm1.193 13.953a1 1 0 0 1 .96-1.038 1 1 0 0 1 1.038.96l.26 6.57a1 1 0 0 1-1.999.079l-.258-6.572zm.032 13.314a1 1 0 1 1 1.987-.23l.75 6.476a1 1 0 0 1-1.987.23l-.75-6.476zm9.13-39.544a1 1 0 0 1 .96-1.039 1 1 0 0 1 1.038.96l.26 6.572a1 1 0 0 1-.96 1.038 1 1 0 0 1-1.038-.96l-.26-6.57zM504.03 157a1 1 0 1 1 1.987-.23l.75 6.476a1 1 0 1 1-1.987.23l-.75-6.476zm1.225 27.267a1 1 0 1 1 1.987-.23l.75 6.476a1 1 0 1 1-1.987.23l-.75-6.476zm-1.128-37.295l1.998-.08-1.998.08zm0 0l-.13-3.286c-.053-1.332 1.946-1.41 1.998-.08l.13 3.286.13 3.286c.052 1.332-1.946 1.41-2 .078l-.13-3.285zm2.45 54.534l1.998-.08-1.998.08zm1.998-.08c.053 1.333-1.946 1.41-1.998.08l-.13-3.286c-.052-1.332 1.946-1.41 2-.078l.258 6.57c.053 1.332-1.946 1.41-1.998.08l-.13-3.286c-.053-1.332 1.946-1.41 1.998-.08zm-2.095 10.107a1 1 0 0 1 .878-1.108 1 1 0 0 1 1.108.878l.75 6.476a1 1 0 1 1-1.987.23l-.75-6.476zm74.47 23.95a1 1 0 1 1 1.653-1.126l3.7 5.436a1 1 0 1 1-1.653 1.126l-3.7-5.436zm9.36-4.626a1 1 0 1 1 1.653-1.126l3.702 5.436a1 1 0 0 1-1.653 1.126l-3.702-5.436zm6.13 27.1a1 1 0 1 1 1.653-1.126l3.702 5.436a1 1 0 0 1-.264 1.389 1 1 0 0 1-1.389-.264l-3.702-5.435zm9.36-4.626a1 1 0 0 1 1.653-1.126l3.702 5.436a1 1 0 1 1-1.654 1.125l-3.7-5.435zm-17.766-6.575a1 1 0 1 1 1.563-1.248l4.068 5.095a1 1 0 0 1-.158 1.405 1 1 0 0 1-1.405-.158l-4.068-5.094zm9.36-4.626a1 1 0 1 1 1.563-1.248l4.067 5.095a1 1 0 0 1-.157 1.405 1 1 0 0 1-1.406-.158l-4.067-5.094zm6.13 27.1a1 1 0 1 1 1.563-1.248l4.067 5.095a1 1 0 1 1-1.563 1.248l-4.067-5.095zm9.36-4.626a1 1 0 1 1 1.563-1.248l4.068 5.095a1 1 0 1 1-1.563 1.248l-4.068-5.095zm-.953 15.827a1 1 0 0 1 1.653-1.126l3.702 5.436a1 1 0 1 1-1.654 1.126l-3.7-5.436zm9.36-4.626a1 1 0 1 1 1.653-1.126l3.702 5.436a1 1 0 0 1-1.653 1.126l-3.702-5.436zm-2.277 15.9a1 1 0 1 1 1.563-1.248l4.068 5.095a1 1 0 1 1-1.563 1.248l-4.068-5.095zm9.36-4.626a1 1 0 1 1 1.563-1.248l4.067 5.095a1 1 0 1 1-1.563 1.248l-4.067-5.095zm-28.7-60.85a1 1 0 1 1 1.653-1.126l3.702 5.436a1 1 0 1 1-1.654 1.126l-3.7-5.436zm15.488 22.475a1 1 0 1 1 1.653-1.126l3.702 5.436a1 1 0 0 1-.264 1.389 1 1 0 0 1-1.389-.264l-3.702-5.435zm-8.406-11.2a1 1 0 1 1 1.563-1.248l4.068 5.095a1 1 0 1 1-1.563 1.248l-4.068-5.095zm15.49 22.474a1 1 0 0 1 .158-1.405 1 1 0 0 1 1.405.158l4.067 5.094a1 1 0 1 1-1.563 1.248l-4.067-5.095zm8.406 11.2a1 1 0 0 1 .264-1.389 1 1 0 0 1 1.389.264L636 275.5a1 1 0 1 1-1.654 1.126l-3.7-5.436zm7.082 11.274a1 1 0 0 1 1.564-1.248l4.067 5.095a1 1 0 1 1-1.563 1.248l-4.068-5.095zm-28.7-60.85a1 1 0 0 1 .264-1.389 1 1 0 0 1 1.389.264l3.702 5.435a1 1 0 0 1-1.653 1.126l-3.702-5.436zm15.49 22.475a1 1 0 0 1 1.653-1.126l3.702 5.436a1 1 0 1 1-1.654 1.126l-3.7-5.436zm-8.406-11.2a1 1 0 1 1 1.563-1.248l4.067 5.095a1 1 0 1 1-1.563 1.248l-4.067-5.095zm15.488 22.474a1 1 0 0 1 .158-1.405 1 1 0 0 1 1.405.158l4.068 5.094a1 1 0 1 1-1.563 1.248l-4.068-5.095zm8.406 11.2a1 1 0 0 1 .264-1.389 1 1 0 0 1 1.389.264l3.702 5.435a1 1 0 1 1-1.653 1.126l-3.702-5.436zm7.083 11.274a1 1 0 1 1 1.563-1.248l4.067 5.095a1 1 0 1 1-1.563 1.248l-4.067-5.095zm-28.7-60.85a1 1 0 0 1 .264-1.389 1 1 0 0 1 1.389.264l3.702 5.435a1 1 0 1 1-1.654 1.126l-3.7-5.436zm15.488 22.475a1 1 0 0 1 1.653-1.126l3.702 5.436a1 1 0 1 1-1.653 1.126l-3.702-5.436zm-8.406-11.2a1 1 0 1 1 1.563-1.248l4.068 5.095a1 1 0 1 1-1.563 1.248l-4.068-5.095zm15.49 22.474a1 1 0 0 1 .158-1.405 1 1 0 0 1 1.405.158l4.067 5.094a1 1 0 1 1-1.563 1.248l-4.067-5.095zm8.406 11.2a1 1 0 0 1 .264-1.389 1 1 0 0 1 1.389.264l3.702 5.435a1 1 0 0 1-1.653 1.126l-3.702-5.436zm7.083 11.274a1 1 0 1 1 1.563-1.248l4.067 5.095a1 1 0 1 1-1.563 1.248l-4.067-5.095zm-28.7-60.85a1 1 0 0 1 .264-1.389 1 1 0 0 1 1.389.264l3.702 5.435a1 1 0 0 1-1.653 1.126l-3.702-5.436zm15.49 22.475a1 1 0 1 1 1.653-1.126l3.702 5.436a1 1 0 1 1-1.653 1.126l-3.702-5.436zm-8.406-11.2a1 1 0 1 1 1.563-1.248l4.067 5.095a1 1 0 1 1-1.563 1.248l-4.067-5.095zm15.49 22.475a1 1 0 1 1 1.563-1.248l4.067 5.095a1 1 0 0 1-.158 1.405 1 1 0 0 1-1.405-.158l-4.067-5.094zm8.405 11.2a1 1 0 1 1 1.654-1.125l3.7 5.436a1 1 0 0 1-.264 1.389 1 1 0 0 1-1.389-.264l-3.702-5.436zm7.083 11.274a1 1 0 1 1 1.563-1.248l4.067 5.095a1 1 0 1 1-1.563 1.248l-4.067-5.095zm-13.212-38.374a1 1 0 1 1 1.654-1.126l3.7 5.436a1 1 0 1 1-1.653 1.126l-3.702-5.436zM644.2 219a1 1 0 1 1 1.563-1.248l4.067 5.095a1 1 0 1 1-1.563 1.248L644.2 219zm15.488 22.475a1 1 0 1 1 1.563-1.248l4.067 5.095a1 1 0 0 1-.157 1.405 1 1 0 0 1-1.406-.158l-4.067-5.094zm-20.72-31.03l1.653-1.125-1.653 1.125zm0 0l-1.85-2.718c-.75-1.102.903-2.227 1.653-1.125l3.702 5.436c.75 1.102-.903 2.227-1.653 1.125l-1.85-2.718zm30.977 44.95l1.653-1.125-1.653 1.125zm1.653-1.125c.75 1.102-.903 2.228-1.653 1.125l-1.85-2.717c-.75-1.103.903-2.228 1.653-1.126l3.702 5.436c.75 1.102-.903 2.227-1.653 1.125l-1.85-2.718c-.75-1.102.902-2.227 1.653-1.125zm3.58 9.68a1 1 0 1 1 1.563-1.248l4.067 5.095a1 1 0 1 1-1.563 1.248l-4.067-5.095zm-48.604 39.807a1 1 0 0 1 1.692-1.067l3.51 5.56a1 1 0 1 1-1.691 1.068l-3.5-5.562zm9.516-4.297a1 1 0 0 1 .312-1.379 1 1 0 0 1 1.379.312l3.5 5.562a1 1 0 0 1-1.692 1.067l-3.51-5.562zm5.18 27.298a1 1 0 0 1 .312-1.379 1 1 0 0 1 1.379.312l3.5 5.562a1 1 0 0 1-.312 1.379 1 1 0 0 1-1.379-.312l-3.5-5.562zm9.515-4.296a1 1 0 1 1 1.692-1.068l3.51 5.562a1 1 0 0 1-.312 1.38 1 1 0 0 1-1.379-.313l-3.5-5.56zm-17.525-7.19a1 1 0 1 1 1.606-1.193l3.887 5.234a1 1 0 1 1-1.606 1.192l-3.887-5.233zm9.515-4.297a1 1 0 1 1 1.606-1.192l3.887 5.234a1 1 0 1 1-1.606 1.192l-3.887-5.234zm5.18 27.298a1 1 0 0 1 .206-1.399 1 1 0 0 1 1.399.207l3.887 5.233a1 1 0 0 1-1.605 1.193l-3.887-5.234zm9.515-4.296a1 1 0 1 1 1.606-1.193l3.887 5.234a1 1 0 1 1-1.606 1.192l-3.887-5.233zm-1.505 15.784a1 1 0 0 1 1.691-1.068l3.5 5.562a1 1 0 0 1-1.692 1.067l-3.51-5.56zm9.515-4.297a1 1 0 0 1 .312-1.379 1 1 0 0 1 1.379.312l3.5 5.562a1 1 0 0 1-.312 1.379 1 1 0 0 1-1.379-.312l-3.5-5.562zm-2.83 15.81a1 1 0 0 1 1.605-1.193l3.887 5.234a1 1 0 0 1-.206 1.399 1 1 0 0 1-1.399-.207l-3.887-5.233zm9.515-4.297a1 1 0 0 1 1.606-1.192l3.887 5.233a1 1 0 1 1-1.606 1.193l-3.887-5.234zm-26.56-61.813a1 1 0 0 1 .312-1.379 1 1 0 0 1 1.379.312l3.5 5.56a1 1 0 1 1-1.692 1.068l-3.51-5.562zm14.695 23a1 1 0 0 1 .312-1.379 1 1 0 0 1 1.379.312l3.5 5.562a1 1 0 0 1-1.692 1.067l-3.51-5.562zm-8-11.487a1 1 0 0 1 1.605-1.193l3.887 5.234a1 1 0 0 1-1.605 1.193l-3.887-5.234zm14.694 23a1 1 0 1 1 1.606-1.192l3.887 5.233a1 1 0 0 1-1.606 1.193l-3.887-5.234zm8 11.488a1 1 0 1 1 1.692-1.068l3.51 5.562a1 1 0 0 1-.312 1.379 1 1 0 0 1-1.379-.312l-3.5-5.56zm6.685 11.514a1 1 0 1 1 1.606-1.193l3.887 5.234a1 1 0 1 1-1.606 1.192l-3.887-5.233zm-26.56-61.813a1 1 0 1 1 1.691-1.068l3.5 5.562a1 1 0 0 1-.312 1.379 1 1 0 0 1-1.379-.312l-3.5-5.56zm14.695 23a1 1 0 0 1 .312-1.379 1 1 0 0 1 1.379.312l3.5 5.56a1 1 0 1 1-1.692 1.068l-3.51-5.562zm-8-11.488a1 1 0 0 1 1.606-1.192l3.887 5.234a1 1 0 1 1-1.606 1.192l-3.887-5.234zm14.695 23.002a1 1 0 0 1 1.605-1.193l3.887 5.234a1 1 0 0 1-.206 1.399 1 1 0 0 1-1.399-.207l-3.887-5.233zm8 11.487a1 1 0 0 1 .312-1.379 1 1 0 0 1 1.379.312l3.5 5.562a1 1 0 0 1-1.692 1.067l-3.51-5.562zm6.684 11.514a1 1 0 1 1 1.606-1.192l3.887 5.233a1 1 0 0 1-1.606 1.193l-3.887-5.234zm-26.56-61.813a1 1 0 0 1 1.692-1.067l3.51 5.56a1 1 0 0 1-1.691 1.068l-3.5-5.562zm14.695 23a1 1 0 0 1 .312-1.379 1 1 0 0 1 1.379.312l3.5 5.562a1 1 0 0 1-.312 1.379 1 1 0 0 1-1.379-.312l-3.5-5.562zm-8-11.487a1 1 0 1 1 1.606-1.192l3.887 5.233a1 1 0 1 1-1.606 1.193l-3.887-5.234zm14.695 23a1 1 0 1 1 1.606-1.192l3.887 5.234a1 1 0 1 1-1.606 1.192l-3.887-5.234zm8 11.488a1 1 0 1 1 1.691-1.068l3.5 5.562a1 1 0 1 1-1.691 1.068l-3.5-5.562zm6.685 11.514a1 1 0 0 1 1.605-1.193l3.887 5.234a1 1 0 0 1-.206 1.399 1 1 0 0 1-1.399-.207l-3.887-5.233zm-26.56-61.813a1 1 0 0 1 1.691-1.068l3.5 5.562a1 1 0 0 1-1.692 1.067l-3.51-5.56zm14.694 23a1 1 0 0 1 1.692-1.067l3.51 5.56a1 1 0 1 1-1.691 1.068l-3.5-5.562zm-8-11.487a1 1 0 0 1 1.606-1.193l3.887 5.234a1 1 0 0 1-.206 1.399 1 1 0 0 1-1.399-.207l-3.888-5.233zm14.695 23a1 1 0 1 1 1.606-1.193l3.887 5.234a1 1 0 1 1-1.606 1.193l-3.887-5.234zm8 11.487a1 1 0 0 1 .312-1.379 1 1 0 0 1 1.379.312l3.5 5.562a1 1 0 0 1-.312 1.379 1 1 0 0 1-1.379-.312l-3.5-5.562zm6.685 11.514a1 1 0 1 1 1.606-1.192l3.887 5.233a1 1 0 0 1-1.606 1.193l-3.887-5.234zm-11.864-38.81a1 1 0 1 1 1.691-1.068l3.5 5.562a1 1 0 0 1-1.692 1.067l-3.51-5.56zm-8-11.488a1 1 0 0 1 .206-1.399 1 1 0 0 1 1.399.207l3.887 5.233a1 1 0 0 1-1.605 1.193l-3.887-5.234zm14.695 23a1 1 0 0 1 .206-1.399 1 1 0 0 1 1.399.207l3.887 5.234a1 1 0 0 1-.206 1.399 1 1 0 0 1-1.399-.207l-3.887-5.234zM685.4 280.76l1.69-1.067-1.69 1.067zm0 0l-1.755-2.78c-.712-1.127.98-2.195 1.69-1.067l3.5 5.56c.71 1.128-.98 2.195-1.69 1.068l-1.755-2.78zm29.39 46.003l1.692-1.068-1.692 1.068zm1.692-1.068c.71 1.128-.98 2.195-1.692 1.068l-1.755-2.78c-.71-1.128.98-2.195 1.692-1.067l3.51 5.56c.712 1.128-.98 2.195-1.69 1.068l-1.755-2.78c-.71-1.128.98-2.195 1.692-1.068zm3.238 9.8a1 1 0 1 1 1.606-1.193l3.887 5.234a1 1 0 1 1-1.606 1.192l-3.887-5.233zM336.49 167.23a1 1 0 1 1 .509-1.934l6.36 1.674a1 1 0 0 1-.509 1.934l-6.36-1.674zm4.03-9.63a1 1 0 1 1 .509-1.934l6.36 1.674a1 1 0 0 1-.509 1.934l-6.36-1.674zm22.405 16.432a1 1 0 1 1 .509-1.934l6.36 1.674a1 1 0 0 1-.509 1.934l-6.36-1.674zm4.03-9.632a1 1 0 1 1 .509-1.934l6.36 1.674a1 1 0 1 1-.51 1.934l-6.36-1.674zm-17.722 6.693a1 1 0 0 1-.803-1.164 1 1 0 0 1 1.164-.803l6.412 1.177a1 1 0 0 1 .803 1.164 1 1 0 0 1-1.164.803l-6.412-1.177zm4.03-9.632a1 1 0 0 1-.803-1.164 1 1 0 0 1 1.164-.803l6.412 1.177a1 1 0 0 1 .803 1.164 1 1 0 0 1-1.164.803l-6.412-1.177zm22.405 16.432a1 1 0 0 1-.803-1.164 1 1 0 0 1 1.164-.803l6.412 1.177a1 1 0 0 1 .803 1.164 1 1 0 0 1-1.164.803l-6.412-1.177zm4.03-9.63a1 1 0 0 1-.803-1.164 1 1 0 0 1 1.164-.803l6.412 1.176a1 1 0 0 1 .803 1.164 1 1 0 0 1-1.164.803l-6.412-1.176zm9.664 12.57a1 1 0 1 1 .509-1.934l6.36 1.674a1 1 0 0 1-.509 1.934l-6.36-1.674zm4.03-9.632a1 1 0 1 1 .509-1.934l6.36 1.674a1 1 0 1 1-.51 1.934l-6.36-1.674zm8.712 13.494a1 1 0 0 1-.803-1.164 1 1 0 0 1 1.164-.803l6.412 1.176a1 1 0 0 1 .803 1.164 1 1 0 0 1-1.164.803l-6.412-1.176zm4.03-9.632a1 1 0 0 1-.803-1.164 1 1 0 0 1 1.164-.803l6.412 1.177a1 1 0 0 1 .803 1.164 1 1 0 0 1-1.164.803l-6.412-1.177zm-61.58-27.094a1 1 0 0 1 .51-1.934l6.36 1.674a1 1 0 1 1-.509 1.934l-6.36-1.674zm26.434 6.8a1 1 0 0 1 .51-1.934l6.36 1.674a1 1 0 1 1-.509 1.934l-6.36-1.674zm-13.692-2.938a1 1 0 0 1-.803-1.164 1 1 0 0 1 1.164-.803l6.412 1.176a1 1 0 0 1 .803 1.164 1 1 0 0 1-1.164.803l-6.412-1.176zm26.434 6.8a1 1 0 0 1-.803-1.164 1 1 0 0 1 1.164-.803l6.412 1.177a1 1 0 0 1 .803 1.164 1 1 0 0 1-1.164.803l-6.412-1.177zm13.692 2.94a1 1 0 0 1 .51-1.934l6.36 1.674a1 1 0 1 1-.509 1.934l-6.36-1.674zm12.742 3.86a1 1 0 0 1-.803-1.164 1 1 0 0 1 1.164-.803l6.412 1.177a1 1 0 0 1 .803 1.164 1 1 0 0 1-1.164.803l-6.412-1.177zm-61.58-27.094a1 1 0 0 1 .509-1.934l6.36 1.674a1 1 0 1 1-.509 1.934l-6.36-1.674zm26.434 6.8a1 1 0 0 1 .509-1.934l6.36 1.674a1 1 0 1 1-.509 1.934l-6.36-1.674zm-13.692-2.94a1 1 0 0 1-.803-1.164 1 1 0 0 1 1.164-.803l6.412 1.177a1 1 0 0 1 .803 1.164 1 1 0 0 1-1.164.803l-6.412-1.177zm26.434 6.8a1 1 0 0 1-.803-1.164 1 1 0 0 1 1.164-.803l6.412 1.177a1 1 0 0 1 .803 1.164 1 1 0 0 1-1.164.803l-6.412-1.177zm13.692 2.94a1 1 0 0 1 .509-1.934l6.36 1.674a1 1 0 1 1-.509 1.934l-6.36-1.674zm12.742 3.862a1 1 0 0 1-.803-1.164 1 1 0 0 1 1.164-.803l6.412 1.176a1 1 0 1 1-.361 1.968l-6.412-1.177zm-61.58-27.094a1 1 0 0 1 .509-1.934l6.36 1.674a1 1 0 1 1-.509 1.934l-6.36-1.674zm26.434 6.8a1 1 0 0 1 .509-1.934l6.36 1.674a1 1 0 1 1-.509 1.934l-6.36-1.674zm-13.692-2.94a1 1 0 0 1-.803-1.164 1 1 0 0 1 1.164-.803l6.412 1.177a1 1 0 0 1 .803 1.164 1 1 0 0 1-1.164.803l-6.412-1.177zm26.434 6.8a1 1 0 0 1-.803-1.164 1 1 0 0 1 1.164-.803l6.412 1.176a1 1 0 1 1-.361 1.968l-6.412-1.177zm13.692 2.938a1 1 0 0 1 .509-1.934l6.36 1.674a1 1 0 1 1-.509 1.934l-6.36-1.674zm12.742 3.862a1 1 0 0 1-.803-1.164 1 1 0 0 1 1.164-.803l6.412 1.177a1 1 0 0 1 .803 1.164 1 1 0 0 1-1.164.803l-6.412-1.177zm-61.58-27.094a1 1 0 0 1 .509-1.934l6.36 1.674a1 1 0 0 1-.509 1.934l-6.36-1.674zm26.434 6.8a1 1 0 1 1 .509-1.935l6.36 1.674a1 1 0 0 1-.509 1.934l-6.36-1.673zm-13.692-2.94a1 1 0 1 1 .361-1.967l6.412 1.176a1 1 0 1 1-.361 1.968l-6.412-1.177zm26.434 6.8a1 1 0 1 1 .361-1.967l6.412 1.177a1 1 0 0 1 .803 1.164 1 1 0 0 1-1.164.803l-6.412-1.177zm13.692 2.94a1 1 0 1 1 .509-1.934l6.36 1.674a1 1 0 0 1-.509 1.934l-6.36-1.674zm12.742 3.862a1 1 0 1 1 .36-1.968l6.413 1.177a1 1 0 0 1 .803 1.164 1 1 0 0 1-1.164.803l-6.412-1.176zm-35.147-20.294a1 1 0 1 1 .509-1.934l6.36 1.674a1 1 0 0 1-.509 1.934l-6.36-1.674zm-13.693-2.94a1 1 0 0 1-.803-1.164 1 1 0 0 1 1.164-.803l6.413 1.177a1 1 0 0 1 .803 1.164 1 1 0 0 1-1.164.803l-6.413-1.177zm26.434 6.8a1 1 0 1 1 .361-1.968l6.412 1.177a1 1 0 1 1-.361 1.967l-6.412-1.176zm-35.995-9.826l.51-1.934-.51 1.934zm0 0l-3.18-.836c-1.3-.34-.78-2.274.51-1.935l6.36 1.674c1.29.34.78 2.274-.51 1.934l-3.18-.837zm52.868 13.6l.51-1.934-.51 1.934zm.51-1.934c1.29.34.78 2.274-.51 1.934l-3.18-.837c-1.3-.34-.78-2.273.51-1.934l6.36 1.674c1.29.34.78 2.274-.51 1.934l-3.18-.837c-1.3-.34-.78-2.273.51-1.934zm9.052 4.96a1 1 0 0 1-.803-1.164 1 1 0 0 1 1.164-.803l6.412 1.176a1 1 0 0 1-.361 1.968l-6.412-1.177zm-186.748 21.503a1 1 0 0 1-.755-1.196 1 1 0 0 1 1.196-.754l6.414 1.45a1 1 0 0 1 .755 1.196 1 1 0 0 1-1.196.754l-6.414-1.45zm3.7-9.766a1 1 0 1 1 .441-1.951l6.415 1.45a1 1 0 1 1-.442 1.951l-6.414-1.45zm22.965 15.64a1 1 0 0 1 .441-1.951l6.415 1.45a1 1 0 1 1-.442 1.951l-6.414-1.45zm3.7-9.766a1 1 0 1 1 .441-1.951l6.415 1.45a1 1 0 1 1-.441 1.951l-6.415-1.45zm-17.477 7.307a1 1 0 0 1 .292-1.979l6.45.953a1 1 0 0 1 .843 1.135 1 1 0 0 1-1.136.843l-6.45-.952zm3.7-9.766a1 1 0 1 1 .293-1.979l6.45.952a1 1 0 1 1-.292 1.979l-6.45-.952zm22.965 15.64a1 1 0 1 1 .293-1.979l6.45.952a1 1 0 1 1-.292 1.979l-6.45-.952zm3.69-9.767a1 1 0 0 1-.844-1.135 1 1 0 0 1 1.136-.843l6.45.952a1 1 0 0 1 .843 1.135 1 1 0 0 1-1.135.843l-6.45-.952zm10.096 12.226a1 1 0 1 1 .441-1.951l6.415 1.45a1 1 0 1 1-.442 1.951l-6.414-1.45zm3.7-9.767a1 1 0 0 1-.754-1.196 1 1 0 0 1 1.196-.754l6.414 1.45a1 1 0 0 1 .755 1.196 1 1 0 0 1-1.196.754l-6.415-1.45zm9.18 13.18a1 1 0 0 1-.844-1.135 1 1 0 0 1 1.136-.843l6.45.952a1 1 0 1 1-.292 1.979l-6.45-.953zm3.7-9.766a1 1 0 1 1 .292-1.979l6.45.953a1 1 0 0 1 .843 1.135 1 1 0 0 1-1.135.843l-6.45-.952zm-62.49-24.928a1 1 0 1 1 .441-1.951l6.415 1.45a1 1 0 1 1-.441 1.951l-6.415-1.45zm26.655 5.873a1 1 0 0 1-.754-1.196 1 1 0 0 1 1.196-.754l6.414 1.45a1 1 0 0 1 .755 1.196 1 1 0 0 1-1.196.754l-6.415-1.45zm-13.786-2.46a1 1 0 0 1-.844-1.135 1 1 0 0 1 1.136-.843l6.45.952a1 1 0 0 1 .843 1.135 1 1 0 0 1-1.135.843l-6.45-.952zm26.655 5.874a1 1 0 1 1 .292-1.979l6.45.953a1 1 0 0 1 .844 1.135 1 1 0 0 1-1.136.843l-6.45-.952zm13.787 2.46a1 1 0 1 1 .441-1.951l6.414 1.45a1 1 0 1 1-.441 1.951l-6.414-1.45zm12.868 3.415a1 1 0 1 1 .292-1.979l6.45.952a1 1 0 1 1-.293 1.979l-6.45-.952zm-62.49-24.93a1 1 0 1 1 .442-1.951l6.414 1.45a1 1 0 1 1-.441 1.951l-6.415-1.45zm26.656 5.874a1 1 0 1 1 .441-1.951l6.414 1.45a1 1 0 1 1-.441 1.951l-6.414-1.45zm-13.787-2.46a1 1 0 0 1 .292-1.979l6.45.952a1 1 0 1 1-.292 1.979l-6.45-.952zm26.655 5.874a1 1 0 1 1 .292-1.979l6.45.952a1 1 0 1 1-.293 1.979l-6.45-.952zm13.787 2.46a1 1 0 0 1 .441-1.951l6.415 1.45a1 1 0 1 1-.442 1.951l-6.414-1.45zm12.868 3.414a1 1 0 0 1-.843-1.135 1 1 0 0 1 1.135-.843l6.45.952a1 1 0 0 1 .843 1.135 1 1 0 0 1-1.135.843l-6.45-.952zm-62.488-24.928a1 1 0 1 1 .441-1.951l6.414 1.45a1 1 0 1 1-.441 1.951l-6.414-1.45zm26.655 5.874a1 1 0 1 1 .441-1.951l6.415 1.45a1 1 0 0 1 .754 1.196 1 1 0 0 1-1.196.754l-6.414-1.45zm-13.787-2.46a1 1 0 0 1 .292-1.979l6.45.952a1 1 0 1 1-.293 1.979l-6.45-.952zm26.655 5.873a1 1 0 0 1-.843-1.135 1 1 0 0 1 1.136-.843l6.45.952a1 1 0 0 1 .843 1.135 1 1 0 0 1-1.135.843l-6.45-.952zm13.787 2.46a1 1 0 0 1 .441-1.951l6.415 1.45a1 1 0 1 1-.441 1.951l-6.415-1.45zm12.87 3.415a1 1 0 1 1 .292-1.979l6.45.953a1 1 0 0 1 .843 1.135 1 1 0 0 1-1.135.843l-6.45-.952zm-62.49-24.93a1 1 0 0 1 .441-1.951l6.415 1.45a1 1 0 0 1 .754 1.196 1 1 0 0 1-1.196.754l-6.414-1.45zm26.655 5.874a1 1 0 1 1 .441-1.951l6.415 1.45a1 1 0 1 1-.441 1.951l-6.415-1.45zm-13.787-2.46a1 1 0 0 1-.843-1.135 1 1 0 0 1 1.136-.843l6.45.952a1 1 0 0 1 .843 1.135 1 1 0 0 1-1.135.843l-6.45-.952zm26.656 5.874a1 1 0 0 1 .292-1.979l6.45.952a1 1 0 1 1-.292 1.979l-6.45-.952zm13.786 2.46a1 1 0 1 1 .442-1.951l6.414 1.45a1 1 0 1 1-.441 1.951l-6.415-1.45zm12.87 3.414a1 1 0 0 1-.843-1.135 1 1 0 0 1 1.135-.843l6.45.952a1 1 0 0 1-.292 1.979l-6.45-.953zM288.32 95.682a1 1 0 0 1 .442-1.951l6.414 1.45a1 1 0 1 1-.441 1.951l-6.415-1.45zm-13.786-2.46a1 1 0 1 1 .292-1.979l6.45.952a1 1 0 0 1-.292 1.978l-6.45-.952zm26.655 5.874a1 1 0 0 1 .292-1.978l6.45.952a1 1 0 0 1-.292 1.979l-6.45-.953zm-36.317-8.563l.442-1.95-.442 1.95zm0 0l-3.207-.726c-1.3-.294-.86-2.245.44-1.95l6.415 1.45c1.3.294.86 2.245-.44 1.95l-3.208-.725zm53.31 11.747l.44-1.95-.44 1.95zm.44-1.95c1.3.294.86 2.245-.44 1.95l-3.207-.726c-1.3-.294-.86-2.245.44-1.95l3.207.725 3.207.726c1.3.294.86 2.245-.44 1.95l-3.207-.725c-1.3-.294-.86-2.245.44-1.95zm9.22 4.64a1 1 0 0 1-.843-1.135 1 1 0 0 1 1.135-.843l6.45.952a1 1 0 0 1 .843 1.135 1 1 0 0 1-1.136.843l-6.45-.952zm-170.196 29.366a1 1 0 0 1 .407-1.958l6.44 1.34a1 1 0 1 1-.407 1.958l-6.44-1.34zm3.52-9.83a1 1 0 1 1 .408-1.958l6.438 1.34a1 1 0 1 1-.407 1.958l-6.44-1.34zm23.235 15.237a1 1 0 1 1 .407-1.958l6.44 1.338a1 1 0 1 1-.407 1.959l-6.44-1.34zm3.52-9.83a1 1 0 0 1 .407-1.958l6.44 1.34a1 1 0 1 1-.407 1.958l-6.44-1.34zm-17.347 7.612a1 1 0 0 1 .258-1.984l6.465.84a1 1 0 0 1 .863 1.12 1 1 0 0 1-1.121.863l-6.465-.84zm3.52-9.83a1 1 0 0 1-.863-1.12 1 1 0 0 1 1.12-.863l6.465.84a1 1 0 0 1 .863 1.12 1 1 0 0 1-1.12.863l-6.465-.84zm23.234 15.237a1 1 0 0 1-.863-1.12 1 1 0 0 1 1.121-.863l6.464.84a1 1 0 1 1-.257 1.984l-6.465-.84zm3.52-9.83a1 1 0 0 1-.863-1.12 1 1 0 0 1 1.121-.863l6.465.84a1 1 0 1 1-.258 1.984l-6.465-.84zm10.31 12.047a1 1 0 1 1 .407-1.958l6.438 1.34a1 1 0 1 1-.407 1.958l-6.438-1.34zm3.52-9.83a1 1 0 1 1 .407-1.958l6.44 1.34a1 1 0 0 1-.407 1.958l-6.44-1.34zm9.407 13.02a1 1 0 0 1-.863-1.121 1 1 0 0 1 1.12-.862l6.465.84a1 1 0 0 1 .863 1.12 1 1 0 0 1-1.12.863l-6.465-.84zm3.52-9.83a1 1 0 1 1 .257-1.984l6.465.84a1 1 0 0 1 .863 1.12 1 1 0 0 1-1.12.863l-6.465-.84zm-62.914-23.834a1 1 0 1 1 .407-1.959l6.44 1.34a1 1 0 1 1-.408 1.958l-6.438-1.338zm26.753 5.407a1 1 0 1 1 .408-1.958l6.438 1.34a1 1 0 1 1-.407 1.958l-6.44-1.34zm-13.827-2.218a1 1 0 0 1-.863-1.12 1 1 0 0 1 1.12-.863l6.465.84a1 1 0 1 1-.257 1.984l-6.465-.84zm26.754 5.408a1 1 0 1 1 .257-1.984l6.465.84a1 1 0 0 1 .863 1.12 1 1 0 0 1-1.121.863l-6.464-.84zm13.827 2.218a1 1 0 0 1 .407-1.958l6.44 1.338a1 1 0 1 1-.407 1.959l-6.44-1.34zm12.926 3.19a1 1 0 0 1-.863-1.12 1 1 0 0 1 1.121-.863l6.465.84a1 1 0 1 1-.258 1.984l-6.465-.84zm-62.914-23.834a1 1 0 1 1 .407-1.958l6.44 1.34a1 1 0 0 1-.407 1.958l-6.44-1.34zm26.754 5.408a1 1 0 1 1 .407-1.958l6.44 1.34a1 1 0 1 1-.408 1.958l-6.438-1.34zm-13.828-2.218a1 1 0 0 1-.863-1.121 1 1 0 0 1 1.121-.862l6.465.84a1 1 0 0 1 .862 1.12 1 1 0 0 1-1.12.863l-6.465-.84zm26.754 5.407a1 1 0 0 1-.863-1.12 1 1 0 0 1 1.12-.863l6.465.84a1 1 0 0 1 .863 1.12 1 1 0 0 1-1.12.863l-6.465-.84zm13.827 2.218a1 1 0 0 1 .407-1.958l6.44 1.34a1 1 0 1 1-.407 1.958l-6.44-1.34zm12.926 3.2a1 1 0 0 1-.862-1.12 1 1 0 0 1 1.12-.863l6.465.84a1 1 0 1 1-.258 1.984l-6.465-.84zM171.724 95.02a1 1 0 0 1 .407-1.958l6.44 1.34a1 1 0 1 1-.407 1.958l-6.44-1.34zm26.754 5.408a1 1 0 0 1 .407-1.959l6.44 1.34a1 1 0 0 1 .775 1.183 1 1 0 0 1-1.182.775l-6.44-1.338zM184.65 98.21a1 1 0 0 1 .258-1.983l6.465.84a1 1 0 1 1-.258 1.983l-6.465-.84zm26.754 5.407a1 1 0 0 1-.863-1.12 1 1 0 0 1 1.121-.863l6.464.84a1 1 0 1 1-.257 1.984l-6.465-.84zm13.828 2.218a1 1 0 1 1 .407-1.958l6.438 1.34a1 1 0 1 1-.407 1.958l-6.438-1.34zm12.926 3.2a1 1 0 1 1 .257-1.984l6.465.84a1 1 0 0 1 .863 1.12 1 1 0 0 1-1.12.863l-6.465-.84zM175.243 85.2a1 1 0 0 1 .408-1.958l6.438 1.34a1 1 0 1 1-.407 1.958l-6.44-1.34zm26.754 5.408a1 1 0 0 1 .407-1.958l6.44 1.34a1 1 0 1 1-.407 1.958l-6.44-1.34zM188.17 88.38a1 1 0 0 1 .257-1.983l6.465.84a1 1 0 0 1-.257 1.983l-6.465-.84zm26.753 5.408a1 1 0 0 1 .258-1.983l6.465.84a1 1 0 1 1-.258 1.983l-6.465-.84zm13.828 2.218a1 1 0 1 1 .407-1.958l6.44 1.34a1 1 0 0 1-.407 1.958l-6.44-1.34zm12.926 3.19a1 1 0 0 1 .257-1.983l6.465.84a1 1 0 0 1-.257 1.983l-6.465-.84zm-36.16-18.426a1 1 0 0 1 .408-1.958l6.438 1.34a1 1 0 1 1-.407 1.958l-6.44-1.34zM191.69 78.55a1 1 0 0 1 .257-1.983l6.465.84a1 1 0 0 1-.257 1.983l-6.465-.84zm26.754 5.408a1 1 0 0 1 .257-1.983l6.465.84a1 1 0 0 1-.258 1.983l-6.464-.84zm-36.46-7.928l.407-1.958-.407 1.958zm0 0l-3.22-.67c-1.306-.27-.9-2.23.407-1.958l6.44 1.34c1.305.272.898 2.23-.408 1.958l-3.22-.67zm53.507 10.815l.408-1.958-.408 1.958zm.408-1.958c1.305.27.898 2.23-.408 1.958l-3.22-.67c-1.305-.27-.898-2.23.407-1.958l6.44 1.34c1.305.27.898 2.23-.407 1.958l-3.22-.67c-1.305-.27-.898-2.23.408-1.958zm9.3 4.478a1 1 0 0 1 .258-1.983l6.465.84a1 1 0 0 1-.258 1.983l-6.465-.84zm-16.325 158.8a1 1 0 1 1-1.943-.476l1.563-6.388a1 1 0 1 1 1.943.475l-1.563 6.39zm-9.7-3.86a1 1 0 0 1-1.209.734 1 1 0 0 1-.733-1.209l1.562-6.388a1 1 0 1 1 1.943.475l-1.563 6.388zm16.04-22.688a1 1 0 1 1-1.943-.475l1.563-6.388a1 1 0 1 1 1.943.475l-1.563 6.388zm-9.7-3.86a1 1 0 0 1-1.209.734 1 1 0 0 1-.733-1.209l1.562-6.39a1 1 0 1 1 1.943.476l-1.563 6.388zm7.002 17.602a1 1 0 1 1-1.974-.327l1.065-6.432a1 1 0 1 1 1.973.327l-1.064 6.432zm-9.7-3.86a1 1 0 0 1-1.15.824 1 1 0 0 1-.823-1.15l1.065-6.432a1 1 0 0 1 1.973.327l-1.065 6.43zm16.04-22.688a1 1 0 1 1-1.974-.327l1.065-6.43a1 1 0 0 1 1.15-.824 1 1 0 0 1 .823 1.15l-1.064 6.432zm-9.7-3.86a1 1 0 1 1-1.973-.327l1.065-6.43a1 1 0 0 1 1.149-.824 1 1 0 0 1 .824 1.15l-1.065 6.432zm12.4-9.882a1 1 0 1 1-1.943-.475l1.563-6.388a1 1 0 1 1 1.943.475l-1.563 6.388zm-9.7-3.86a1 1 0 0 1-1.209.734 1 1 0 0 1-.733-1.209l1.562-6.388a1 1 0 1 1 1.943.475l-1.563 6.388zm13.34-8.947a1 1 0 1 1-1.974-.326l1.065-6.432a1 1 0 1 1 1.973.327l-1.064 6.43zm-9.7-3.86a1 1 0 0 1-1.15.823 1 1 0 0 1-.823-1.149l1.065-6.432a1 1 0 0 1 1.973.327l-1.065 6.43zm-26.015 62.044a1 1 0 1 1-1.943-.475l1.563-6.388a1 1 0 1 1 1.943.475l-1.563 6.388zm6.338-26.548a1 1 0 1 1-1.943-.476l1.563-6.388a1 1 0 1 1 1.943.476l-1.563 6.388zm-2.7 13.74a1 1 0 0 1-1.15.824 1 1 0 0 1-.823-1.15l1.064-6.432a1 1 0 1 1 1.973.327l-1.064 6.43zm6.338-26.548a1 1 0 1 1-1.974-.327l1.065-6.432a1 1 0 1 1 1.973.327l-1.064 6.432zm2.7-13.742a1 1 0 1 1-1.943-.475l1.563-6.388a1 1 0 1 1 1.943.475l-1.563 6.388zm3.64-12.807a1 1 0 1 1-1.974-.327l1.065-6.43a1 1 0 0 1 1.15-.824 1 1 0 0 1 .823 1.15l-1.064 6.432zm-26.016 62.044a1 1 0 0 1-1.209.734 1 1 0 0 1-.733-1.209l1.562-6.388a1 1 0 1 1 1.943.475l-1.563 6.388zm6.338-26.55a1 1 0 0 1-1.209.734 1 1 0 0 1-.733-1.209l1.562-6.388a1 1 0 1 1 1.943.475l-1.563 6.388zm-2.7 13.742a1 1 0 0 1-1.15.823 1 1 0 0 1-.823-1.149l1.065-6.432a1 1 0 0 1 1.15-.823 1 1 0 0 1 .823 1.149l-1.065 6.432zm6.338-26.548a1 1 0 1 1-1.973-.327l1.065-6.432a1 1 0 0 1 1.973.327l-1.065 6.432zm2.7-13.742a1 1 0 0 1-1.209.734 1 1 0 0 1-.733-1.209l1.562-6.388a1 1 0 1 1 1.943.475l-1.563 6.388zm3.64-12.807a1 1 0 1 1-1.973-.327l1.065-6.43a1 1 0 0 1 1.149-.824 1 1 0 0 1 .824 1.15l-1.065 6.432zm-26.015 62.044a1 1 0 1 1-1.943-.475l1.563-6.388a1 1 0 1 1 1.943.475l-1.563 6.388zm6.338-26.55a1 1 0 1 1-1.943-.475l1.563-6.388a1 1 0 1 1 1.943.475l-1.563 6.388zm-2.7 13.742a1 1 0 1 1-1.973-.327l1.064-6.43a1 1 0 0 1 1.15-.824 1 1 0 0 1 .823 1.15l-1.064 6.432zm6.338-26.55a1 1 0 0 1-1.15.824 1 1 0 0 1-.823-1.15l1.064-6.432a1 1 0 1 1 1.973.327l-1.064 6.43zm2.7-13.74a1 1 0 1 1-1.943-.476l1.563-6.388a1 1 0 1 1 1.943.476l-1.563 6.388zm3.64-12.807a1 1 0 1 1-1.973-.327l1.064-6.432a1 1 0 1 1 1.973.327l-1.064 6.432zm-26.016 62.044a1 1 0 0 1-1.208.734 1 1 0 0 1-.734-1.209l1.562-6.388a1 1 0 1 1 1.943.475l-1.563 6.388zm6.338-26.55a1 1 0 0 1-1.209.734 1 1 0 0 1-.733-1.209l1.562-6.388a1 1 0 1 1 1.943.475l-1.563 6.388zm-2.7 13.742a1 1 0 1 1-1.973-.327l1.065-6.43a1 1 0 0 1 1.15-.824 1 1 0 0 1 .823 1.15l-1.065 6.432zm6.338-26.55a1 1 0 0 1-1.15.824 1 1 0 0 1-.823-1.15l1.065-6.432a1 1 0 1 1 1.973.327l-1.065 6.43zm2.7-13.74a1 1 0 0 1-1.209.733 1 1 0 0 1-.733-1.209l1.562-6.388a1 1 0 1 1 1.943.475l-1.563 6.39zm3.64-12.807a1 1 0 1 1-1.973-.327l1.065-6.432a1 1 0 1 1 1.973.327l-1.065 6.432zm-19.677 35.495a1 1 0 1 1-1.943-.475l1.563-6.388a1 1 0 1 1 1.943.475l-1.563 6.388zm-2.7 13.742a1 1 0 1 1-1.973-.327l1.064-6.432a1 1 0 1 1 1.973.327l-1.064 6.432zm6.338-26.55a1 1 0 0 1-1.15.823 1 1 0 0 1-.823-1.149l1.064-6.432a1 1 0 0 1 1.15-.823 1 1 0 0 1 .823 1.149l-1.064 6.432zM171.45 221.8l-1.942-.476 1.942.476zm0 0l-.78 3.194c-.317 1.295-2.26.82-1.943-.476l1.563-6.388c.317-1.295 2.26-.82 1.943.476l-.782 3.194zm12.676-53.098l-1.942-.475 1.942.475zm-1.942-.475c.316-1.295 2.26-.82 1.942.475l-.78 3.194c-.317 1.296-2.26.82-1.943-.475l1.563-6.388c.317-1.295 2.26-.82 1.943.475l-.782 3.194c-.316 1.296-2.26.82-1.942-.475zm4.8-9.138a1 1 0 0 1-1.15.824 1 1 0 0 1-.823-1.15l1.064-6.432a1 1 0 1 1 1.973.327l-1.064 6.43z" class="C"/></g><g class="D"><use xlink:href="#I"/><use xlink:href="#I"/><path d="M385.34 89.285c13.227 6.126 33.282 14.6 49.26 20.815-12.482 7.76-20.14 21.17-23.338 39.308-6.304 35.75 9.618 60.342 52.733 67.944s66.536-10.33 72.792-45.8c4.907-27.83-4.01-49.025-29.254-60.44l35.487-30.256c36.308 20.276 49.705 54.113 41.762 99.16-11.034 62.578-53.098 91.04-127.928 77.845-75.1-13.242-104.67-54.056-93.588-116.905 3.76-21.327 11.083-38.634 22.075-51.66z"/></g><path d="M485.93 25.666c-2.522-2.143-4.298-5.183-4.795-8.717-1.076-7.657 4.26-14.736 11.916-15.812s14.736 4.26 15.812 11.915-4.26 14.736-11.916 15.812c-.83.117-1.653.158-2.463.13C510.28 36.185 516.452 46.02 513 58.5c-4.333 15.667-4.333 27.5 0 35.5l-83-16c4.853-6.55 7.853-11.55 9-15 5.675-17.08 5.733-28.5 6.5-28.5 1 0 12.667-3.5 35-10.5 1.89.533 3.7 1.088 5.43 1.666z" class="B C"/><use xlink:href="#J" class="E"/><mask id="C" mask-type="alpha" maskUnits="userSpaceOnUse" x="432" y="22" width="77" height="112"><use xlink:href="#J" class="E"/></mask><g mask="url(#C)" class="B C"><path d="M463 91l19-.5-21 6.5 2-6zm-26.357-47.437c3.957-9.66 8.5-16.38 13.626-20.154s14.682-7.435 28.664-10.98l41.193 27.964L505.5 80 502 92l-4.18-19.65-20.14-20.063-14.627-3.11 1.215-5.718-9.748 3.904-17.877-3.8z"/></g><use xlink:href="#K" class="D"/><mask id="D" mask-type="alpha" maskUnits="userSpaceOnUse" x="0" y="114" width="380" height="349"><use xlink:href="#K" class="D"/></mask><g mask="url(#D)" class="B C"><path d="M154 318.5l8 79.5-18.5 47.5L176 464l53 46 11.5-9.5c8.23-8.712 12.896-15.88 14-21.5s18.937-5.62 53.5 0l-67.5-184.5-86.5 24z"/></g><path d="M879.224 327.35l31.184 49.904-46.09 28.8 23.388 37.428-59.26 37.03-23.388-37.428L642.425 544.71l-31.184-49.904 73.597-244.113 59.26-37.03 89.037 142.49 46.1-28.8zM675.682 454.515l98.374-61.47-52.462-83.957-45.912 145.428z" class="D"/><mask id="E" mask-type="alpha" maskUnits="userSpaceOnUse" x="522" y="184" width="412" height="399"><path d="M879.224 327.35l31.184 49.904-46.09 28.8 23.388 37.428-59.26 37.03-23.388-37.428-162.633 101.624-31.184-49.904 73.597-244.113 59.26-37.03 89.037 142.5 46.1-28.8zM675.682 454.514l98.374-61.47-52.462-83.957-45.912 145.428z" class="D"/></mask><g mask="url(#E)" class="B C"><path d="M641 428.5c-1.333 0-9.5 28.5-24.5 85.5l26.5 40 91.5-39.5-14.5-93-79 7z"/></g><g class="C"><path d="M454.5 47.5l-23.5-5c11.667-18.667 27.5-25 47.5-19 16.902 5.07 3.595 4.572-19.5 12.5-2.822.97-4.322 4.802-4.5 11.5z" class="B"/><path d="M439.357 55.368a8.63 8.63 0 0 1 .144 1.631c0 1.932-.523 3.5-1.5 3.5s-1.5-1.568-1.5-3.5c0-.933.122-1.782.358-2.4-2.4-.56-4.466-.518-6.326.116a1 1 0 0 1-.645-1.893c2.822-.96 5.96-.79 9.635.472 1.768.607 3.81 2.128 6.174 4.557a1 1 0 0 1-1.433 1.395c-1.926-1.978-3.573-3.266-4.907-3.867zm27.91 6.608c.155.57.235 1.27.235 2.023 0 1.932-.523 3.5-1.5 3.5s-1.5-1.568-1.5-3.5c0-1.03.148-1.958.436-2.598-2.013-.35-3.787-.247-5.404.304a1 1 0 0 1-.645-1.893c2.822-.96 5.96-.79 9.635.472 1.768.607 3.81 2.128 6.174 4.557a1 1 0 0 1-1.433 1.395c-2.165-2.224-3.98-3.576-5.39-4.06l-.607-.2zm-12.915-2.95L448.61 68.3l3.588.718a1 1 0 0 1-.392 1.961l-5-1a1 1 0 0 1-.655-1.507l6.5-10.5a1 1 0 1 1 1.701 1.053zm-8.754 17.47a1 1 0 0 1-.193-1.991l15.5-1.5a1 1 0 1 1 .193 1.991l-15.5 1.5z"/></g><g class="B"><path d="M488.212 65.257c5.134-5.134 10.07-5.53 14.8-1.185 7.108 6.516-.94 18.698-9.42 18.517-5.653-.12-7.45-5.898-5.4-17.332zM174.945 318.05l-8.305 20.17c-1.594 3.873-5.173 6.568-9.336 7.03-.547.06-1.1.027-1.636-.1-2.566-.613-4.15-3.2-3.536-5.755L166.554 279l2.235-.966c11.125-4.8 23.5-5.883 35.296-3.054 24.4 5.858 38.232 12.698 41.47 20.52 3.8 9.157 11.317 31.922 22.583 68.295a6.32 6.32 0 0 1-4.167 7.906l-.166.05c-3.537 1-7.244-.886-8.54-4.323l-16.948-44.93a6.42 6.42 0 0 0-8.262-3.746 7.01 7.01 0 0 0-4.294 8.427l10.484 37.958c1.194 4.323-1.343 8.795-5.665 10a8.01 8.01 0 0 1-.525.126 9.27 9.27 0 0 1-10.8-6.62l-10.395-37.995a6.44 6.44 0 0 0-7.908-4.511c-.137.038-.273.08-.407.126-3.7 1.284-5.873 5.137-5.04 8.972l8.443 38.912c.642 2.958-1.236 5.877-4.194 6.52-.56.12-1.137.154-1.708.097-4.5-.45-8.236-3.673-9.34-8.06l-13.768-54.64zm513.77 88.692a27 27 0 0 1 23.697 6.134L723.867 423l-11 26.5-24.03 60.375c-1.587 3.988-6.028 6.024-10.086 4.625l-.266-.097c-3.8-1.476-5.683-5.752-4.208-9.552l15.182-39.093a4.9 4.9 0 0 0 .21-.683A4.87 4.87 0 0 0 686 459.25c-.025-.005-.05-.01-.074-.016-3.006-.64-5.96 1.277-6.6 4.283l-8.658 40.655c-.023.107-.048.213-.075.32A7.67 7.67 0 0 1 661.25 510a8.6 8.6 0 0 1-6.311-9.873l7.513-41.12c.515-2.818-1.24-5.553-4.018-6.257-.232-.06-.468-.098-.707-.117-2.37-.194-4.448 1.57-4.642 3.94l-3.326 40.654-.023.235c-.538 4.978-5 8.576-9.986 8.038a9.47 9.47 0 0 1-8.41-10.297c3.33-35.555 6.84-57.8 10.527-66.703 3.468-8.38 19.084-15.632 46.848-21.757z" class="E"/><path d="M443.5 701.5l-108 71-78-218.5 186 147.5zM717 748l-160-9.5L526 475l86 20 105 253z" fill="#ff567b"/></g><path d="M502.58 262.89a1 1 0 1 1 1.841-.782c8.913 21 20.928 31.39 36.08 31.39a1 1 0 1 1 0 2c-16.072 0-28.724-10.942-37.92-32.61zm-16.15 70.707a1 1 0 1 1-.862 1.805l-22-10.5a1 1 0 1 1 .862-1.805l22 10.5zm-62.416-165.424a1 1 0 1 1 1.97-.348l3 17a1 1 0 1 1-1.97.348l-3-17z" class="C"/><path d="M219.5 347c5.8 0 10.5-4.7 10.5-10.5s-4.7-10.5-10.5-10.5-10.5 4.7-10.5 10.5 4.7 10.5 10.5 10.5z" fill="#ffe694"/><path d="M103.386 506.673l13.28 7.738L128 506l-2.667 13.458 8.667 3.7-7.333 5.047 3 12.785-11.334-7.402L110 542l-1.667-11.776-10.333-4.7 10.333-6.056-4.947-12.785zM751.25 556.99l19.825-7.918.485-19.596L784 543.9l11.46-6.32-.747 12.34 16.558 7.65-17.792 6.075 2.08 16.312-14.313-8.245-13.99 7.282 2.207-16.488-18.222-5.518zM426.08 516L446 527.5l17-12.5-4 20 13 5.5-11 7.5 4.5 19-17-11-12.5 12.5-2.5-17.5-15.5-7 15.5-9-7.42-19zm-78.544-243.308l13.65 7.953L372.833 272l-2.74 13.832 8.907 3.804-7.537 5.186 3.083 13.14-11.648-7.608-8.565 8.645-1.713-12.103-10.62-4.84 10.62-6.224-5.084-13.14z" class="B D"/><defs ><path id="G" d="M443.5 247.5l-6.68 12.778c-3.184 6.092-5.176 12.736-5.87 19.575L428 309 260.896 474.4c-17.3 17.113-21.813 43.313-11.262 65.233L367.5 784.5c-28.65 8.526-47.815 17.693-57.5 27.5s-12.517 22.92-8.5 39.338l118.5.162 12-37.5 4.07-20.16c.656-3.248 3.82-5.35 7.07-4.694a6 6 0 0 1 4.367 3.613L471.5 851.5h23l-19-88c-5.923-15.11-10.923-26.61-15-34.5s-9.733-17.01-16.968-27.364L346 514.5 486 335l129.5 459.5c-27.553 4.903-45.053 11.57-52.5 20s-8.946 21.097-4.5 38h141l-3.08-57.938a3 3 0 0 1 5.763-1.319L727 852.5h22l-25-87c-5.925-19.893-28.5-50-24.5-36.5 0 0-16.414-61.354-46.5-141-9.736-25.776-26.626-56.17-37.36-83.482L547.62 331.485C542.82 319.27 544.748 297 536 274.736c-2.492-6.34-9.492-15.085-21-26.236l-71.5-1z"/><path id="H" d="M417 120.5L208 70l-69 207 93 6 34.5-120.5L428 185l11 62.557h76l8-78.057 154 252 72 22 13-22L706 261 549.5 114.5c-30.016 7.72-51.683 11.238-65 10.557-33.333-1.705-55.833-3.224-67.5-4.557z"/><path id="I" d="M456.382 257.844c-74.767-13.234-104.2-54.12-93.127-117.105C374.27 78.023 415.802 49.976 490.57 63.2c74.498 13.187 104.2 54.12 93.222 116.565-11.016 62.715-52.91 91.256-127.41 78.07zm7.13-40.587c42.925 7.598 66.252-10.383 72.497-45.94 6.2-35.287-9.643-59.92-52.568-67.52s-66.156 9.84-72.402 45.398c-6.293 35.83 9.548 60.464 52.473 68.062z"/><path id="J" d="M508.486 58.002c.068-16-11.065-30.4-27.334-33.857l-4.9-1.04c-18.638-3.96-36.958 7.936-40.92 26.573l-2.184 10.27c-2.755 12.965 5.52 25.7 18.486 28.466l12.328 2.62-7.047 33.262c3.716 4.135 9.407 6.87 17.074 8.203s14.132.508 19.397-2.475l12.252-58.433a34.59 34.59 0 0 0 2.076-6.528 34.65 34.65 0 0 0 .761-6.999L508.5 58l-.014.002z"/><path id="K" d="M332.916 363.31l-16.22 56.566-52.244-14.98-12.165 42.425-67.17-19.26 12.165-42.424-184.345-52.86 16.22-56.567 230.658-108.65 67.17 19.26-46.313 161.51 52.244 14.98zM102.22 297.14l111.506 31.974 27.288-95.165-138.794 63.19z"/></defs></svg>